<svg version="1.1" id="Layer_1" xmlns="http://www.w3.org/2000/svg" xmlns:xlink="http://www.w3.org/1999/xlink" x="0px" y="0px"
	 width="100%" viewBox="0 0 500 85" enable-background="new 0 0 500 85" xml:space="preserve">
<path fill="#FEFDFF" opacity="1.000000" stroke="none" 
	d="
M370.000000,86.000000 
	C246.719147,86.000000 123.938309,86.000000 1.078731,86.000000 
	C1.078731,57.731441 1.078731,29.462616 1.078731,1.096892 
	C167.666641,1.096892 334.333313,1.096892 500.971985,1.096892 
	C500.971985,29.394913 500.971985,57.697472 500.971985,86.000000 
	C457.462646,86.000000 413.981323,86.000000 370.000000,86.000000 
M30.092491,39.874485 
	C24.657692,39.852043 15.316233,33.142857 14.105938,27.301624 
	C13.232383,23.085592 10.319368,22.139980 7.372770,20.945908 
	C4.689756,19.858648 2.783075,20.711922 2.984383,24.110619 
	C3.180598,27.423336 3.273913,30.742590 3.499078,34.053078 
	C4.375541,46.939312 8.558519,59.537121 6.863864,72.652321 
	C6.758531,73.467506 6.575977,74.517975 6.965832,75.099030 
	C7.696901,76.188637 8.710749,77.626503 9.804358,77.823425 
	C12.115993,78.239685 14.554713,77.950180 16.941303,77.950180 
	C17.104952,77.437027 17.268600,76.923866 17.432249,76.410713 
	C16.462940,75.612923 15.475943,74.835449 14.529473,74.011429 
	C13.645253,73.241608 12.031473,72.393883 12.059687,71.629173 
	C12.489720,59.973442 13.136900,48.325722 13.783172,35.703934 
	C21.375998,43.457703 21.375998,43.457703 25.959341,43.603504 
	C21.716341,46.589626 21.553703,50.379139 22.476089,54.815132 
	C23.383020,59.176811 23.564383,63.696419 23.954609,68.156311 
	C24.283257,71.912415 25.966522,74.027863 30.536488,73.837593 
	C30.725981,73.871117 30.915476,73.904640 31.029976,74.763916 
	C30.853203,77.545769 30.978214,80.456024 34.434490,80.884750 
	C39.923946,81.565666 36.835842,76.169838 38.904549,74.048965 
	C43.973721,74.257187 46.086277,71.633347 46.210522,66.479904 
	C46.317177,62.056229 47.105125,57.630402 47.834114,53.245811 
	C48.496513,49.261719 47.759552,46.024422 44.499031,43.396328 
	C45.674492,42.364857 46.849957,41.333385 48.025417,40.301914 
	C47.812504,39.855846 47.599590,39.409775 47.386673,38.963707 
	C45.283009,38.963707 43.167755,39.100788 41.079006,38.924282 
	C39.080688,38.755417 37.109913,38.260551 35.981438,38.060467 
	C36.928593,39.895821 37.920353,41.817612 38.203232,44.019409 
	C33.178608,45.809998 31.846020,45.075462 31.485785,39.979546 
	C31.459330,39.776108 31.432875,39.572674 31.406424,39.369236 
	C31.247829,39.553143 31.089235,39.737049 30.092491,39.874485 
M258.870453,31.131042 
	C252.350021,36.949009 250.692657,42.977428 255.497543,48.498508 
	C261.778656,55.715878 269.024902,62.093346 276.876221,69.838661 
	C283.185303,63.121368 288.866333,57.063679 294.557800,51.015800 
	C299.454559,45.812378 299.998016,38.968529 295.905731,33.843159 
	C291.801361,28.702633 285.194733,27.887442 278.822784,31.347982 
	C277.434326,32.102051 274.919678,32.338814 273.701477,31.574366 
	C269.008362,28.629360 264.431244,28.202995 258.870453,31.131042 
M424.702606,65.821396 
	C433.861877,73.571518 444.620209,69.515228 454.729919,70.666039 
	C454.729919,52.675430 454.729919,35.459198 454.729919,18.362514 
	C452.402527,18.362514 450.489624,18.362514 447.969086,18.362514 
	C447.969086,33.723392 447.969086,48.758900 447.969086,64.223564 
	C440.637634,63.018890 432.602386,67.031731 427.914551,58.871964 
	C425.350311,54.408627 425.363708,49.526703 428.177917,45.108803 
	C432.595093,38.174530 439.040649,39.802189 445.221527,41.990288 
	C447.037201,36.320789 444.304382,34.588390 439.773712,34.013138 
	C431.981873,33.023800 425.088623,36.340866 421.263947,43.090736 
	C417.356171,49.987213 418.453064,58.344627 424.702606,65.821396 
M151.769760,27.536705 
	C151.769760,41.760090 151.769760,55.983479 151.769760,70.253677 
	C154.295975,70.253677 156.044266,70.253677 158.342438,70.253677 
	C158.342438,60.374641 158.342438,50.806580 158.342438,41.107742 
	C160.201752,41.025723 161.516479,40.927315 162.831985,40.916088 
	C173.338043,40.826405 174.943665,42.415928 174.964783,52.924042 
	C174.976349,58.679127 174.966858,64.434258 174.966858,70.193542 
	C177.527527,70.193542 179.424118,70.193542 181.173248,70.193542 
	C181.173248,61.540161 181.574020,53.248116 181.043152,45.016144 
	C180.637344,38.723557 176.957962,35.628658 170.694199,34.953876 
	C166.752258,34.529224 162.778656,34.398579 158.139618,34.090973 
	C158.139618,28.736767 158.139618,23.531654 158.139618,18.352982 
	C155.695496,18.352982 153.951981,18.352982 151.769577,18.352982 
	C151.769577,21.285414 151.769577,23.917168 151.769760,27.536705 
M216.476944,35.784439 
	C206.353119,31.449795 196.742599,34.023060 192.055893,42.323296 
	C187.084549,51.127625 189.143951,62.564068 196.674927,67.974060 
	C203.599854,72.948692 214.894531,72.288040 219.777512,66.659332 
	C217.890030,63.421696 215.594452,62.808670 211.944382,64.342865 
	C207.414627,66.246811 202.997803,64.859596 199.678101,61.260857 
	C195.726181,56.976757 195.898117,51.766037 197.719345,46.726727 
	C199.244217,42.507389 202.516449,39.982555 207.231796,39.925922 
	C210.358597,39.888363 213.485214,40.164738 213.863220,44.243019 
	C214.242477,48.334801 211.971329,50.440670 208.109283,50.920635 
	C206.021210,51.180141 203.896896,51.148121 201.763306,51.248825 
	C201.763306,53.364193 201.763306,55.062607 201.763306,57.397099 
	C205.516602,56.873901 208.849411,56.722576 212.012268,55.909851 
	C221.592346,53.448132 224.201752,43.182003 216.476944,35.784439 
M373.423096,45.283772 
	C372.788086,37.496025 369.944275,34.564747 362.416473,33.938602 
	C348.004456,32.739845 338.725006,44.305119 342.632538,58.595898 
	C346.062134,71.138557 362.714355,75.789574 372.259338,66.870949 
	C370.378967,63.265362 367.865906,62.985882 364.131042,64.427490 
	C359.570099,66.187958 355.123260,64.790512 351.922211,61.105701 
	C348.162262,56.777538 348.179688,51.588936 350.182709,46.538376 
	C351.840454,42.358593 355.105530,39.913040 359.814117,39.911640 
	C362.984680,39.910698 365.954987,40.280582 366.212738,44.438656 
	C366.452850,48.312447 364.419556,50.361732 360.785461,50.879417 
	C358.689636,51.177971 356.543671,51.124268 354.216248,51.239185 
	C354.216248,53.229286 354.216248,54.934196 354.216248,56.602039 
	C365.640594,57.826923 371.514801,54.506229 373.423096,45.283772 
M499.695953,49.990440 
	C496.868866,37.830170 487.269928,31.488716 476.171753,34.449409 
	C466.148987,37.123219 460.650238,48.110752 464.000031,58.770687 
	C466.657776,67.228317 475.257538,72.405403 484.404541,71.054245 
	C493.805267,69.665611 499.756561,61.836536 499.695953,49.990440 
M113.053658,18.208260 
	C112.680344,20.165112 112.307022,22.121962 111.787399,24.845764 
	C116.744667,24.845764 120.801636,24.845764 125.347069,24.845764 
	C125.347069,40.384846 125.347069,55.281292 125.347069,70.237381 
	C127.926941,70.237381 129.977081,70.237381 132.625092,70.237381 
	C132.625092,54.982357 132.625092,40.099651 132.625092,24.586361 
	C137.095947,24.586361 140.982803,24.586361 144.774368,24.586361 
	C144.774368,22.052601 144.774368,20.174505 144.774368,18.042730 
	C134.219345,18.042730 124.081863,18.042730 113.053658,18.208260 
M394.133118,34.425102 
	C389.887268,34.425102 385.641418,34.425102 381.465240,34.425102 
	C381.465240,46.902470 381.465240,58.473038 381.465240,70.281815 
	C383.699585,70.281815 385.601624,70.281815 388.040405,70.281815 
	C388.040405,60.421425 388.040405,50.859711 388.040405,40.924175 
	C391.205811,40.924175 393.838013,40.948067 396.469604,40.918991 
	C401.305786,40.865562 403.958466,43.240318 404.282257,48.049717 
	C404.460876,50.702953 404.444672,53.371319 404.458862,56.033169 
	C404.484192,60.783199 404.465973,65.533455 404.465973,70.311844 
	C407.099091,70.311844 408.863922,70.311844 410.876221,70.311844 
	C410.876221,61.596325 411.209595,53.137703 410.758026,44.721188 
	C410.461365,39.191608 406.628754,35.896225 401.004303,35.005505 
	C399.036011,34.693802 397.029938,34.620720 394.133118,34.425102 
M73.413132,20.487190 
	C71.864822,20.701662 69.750832,20.352278 68.871941,21.234009 
	C65.982086,24.133186 63.567806,27.502127 60.917713,30.645830 
	C58.561470,33.440952 55.970657,36.058037 53.837318,39.009529 
	C53.185509,39.911324 53.705029,41.659748 53.688129,43.020447 
	C54.950760,42.722336 56.510750,42.787167 57.412399,42.048454 
	C59.140751,40.632431 60.495216,38.760059 62.249046,36.804729 
	C63.324043,42.599274 64.602669,47.481773 65.046272,52.438995 
	C65.504280,57.557095 65.115753,62.748184 65.164848,67.906700 
	C65.193253,70.890892 65.741249,74.013786 61.326714,74.525764 
	C60.726242,74.595398 60.299969,76.167007 59.706295,77.193108 
	C69.789581,79.499100 70.624870,78.661995 70.997505,69.496887 
	C71.315514,61.675381 70.473534,53.960350 72.628998,45.964481 
	C74.731873,38.163719 73.599724,29.490881 73.413132,20.487190 
M229.120316,33.504128 
	C229.423111,42.456223 229.544098,51.419659 230.101517,60.355873 
	C230.403305,65.193726 233.605637,68.619705 238.151871,69.373711 
	C244.575882,70.439140 251.173462,70.457870 257.682617,70.923027 
	C257.682617,67.922752 257.682617,66.034599 257.682617,63.871544 
	C254.177933,63.871544 251.037415,63.879063 247.896942,63.870117 
	C238.791870,63.844177 236.435837,61.618111 236.298355,52.335705 
	C236.155563,42.694950 236.273331,33.050488 236.246246,23.407730 
	C236.241348,21.666597 236.087006,19.925888 236.009384,18.342550 
	C233.418259,18.342550 231.492752,18.342550 229.120377,18.342550 
	C229.120377,23.262846 229.120377,27.884523 229.120316,33.504128 
M313.554474,61.864388 
	C315.888214,65.012222 318.221985,68.160057 320.808899,71.649376 
	C331.927704,61.236919 334.090698,48.169090 336.348145,35.085335 
	C331.008392,33.238422 329.494690,35.119225 328.548126,39.813850 
	C327.085388,47.068401 324.467560,54.090065 322.339600,61.210495 
	C321.478302,61.182343 320.616974,61.154190 319.755676,61.126038 
	C317.655640,53.894020 315.102234,46.753777 313.613281,39.398071 
	C312.602448,34.404381 310.451630,33.467957 304.919800,35.391273 
	C307.680481,44.025402 310.429962,52.624535 313.554474,61.864388 
M99.600906,21.351971 
	C98.757980,20.310387 97.915054,19.268803 97.072121,18.227221 
	C96.363380,19.576841 95.052063,20.920389 95.038391,22.277018 
	C94.889130,37.082455 94.895508,51.890316 95.012039,66.696312 
	C95.024117,68.231369 96.019157,69.758690 96.558113,71.289597 
	C97.179565,71.292641 97.801018,71.295677 98.422470,71.298721 
	C98.917725,69.236435 99.827934,67.176872 99.841469,65.111435 
	C99.935242,50.805614 99.842415,36.498577 99.600906,21.351971 
M71.187828,17.845125 
	C74.113365,15.468289 74.962341,12.342976 72.045738,9.927516 
	C70.463493,8.617140 66.899902,8.199123 65.121490,9.113117 
	C63.764599,9.810476 62.931744,13.457929 63.424343,15.397099 
	C64.287308,18.794279 67.197144,19.626015 71.187828,17.845125 
M3.980674,11.787962 
	C4.201663,17.041357 6.969054,20.074682 10.530858,18.439720 
	C12.331489,17.613182 14.299747,15.334812 14.543036,13.494812 
	C14.745715,11.961938 12.913717,9.352268 11.320366,8.571361 
	C8.661945,7.268458 5.749730,7.810304 3.980674,11.787962 
z"/>
<path fill="#BC85E8" opacity="1.000000" stroke="none" 
	d="
M44.047512,43.899284 
	C47.759552,46.024422 48.496513,49.261719 47.834114,53.245811 
	C47.105125,57.630402 46.317177,62.056229 46.210522,66.479904 
	C46.086277,71.633347 43.973721,74.257187 38.904549,74.048965 
	C36.835842,76.169838 39.923946,81.565666 34.434490,80.884750 
	C30.978214,80.456024 30.853203,77.545769 31.320343,74.109146 
	C31.610708,72.132217 31.610708,70.810043 31.610708,69.487877 
	C31.170908,69.507149 30.731106,69.526421 30.291306,69.545692 
	C30.190699,70.914795 30.090092,72.283905 29.989485,73.653008 
	C25.966522,74.027863 24.283257,71.912415 23.954609,68.156311 
	C23.564383,63.696419 23.383020,59.176811 22.476089,54.815132 
	C21.553703,50.379139 21.716341,46.589626 25.959341,43.603504 
	C21.375998,43.457703 21.375998,43.457703 13.783172,35.703934 
	C13.136900,48.325722 12.489720,59.973442 12.059687,71.629173 
	C12.031473,72.393883 13.645253,73.241608 14.529473,74.011429 
	C15.475943,74.835449 16.462940,75.612923 17.432249,76.410713 
	C17.268600,76.923866 17.104952,77.437027 16.941303,77.950180 
	C14.554713,77.950180 12.115993,78.239685 9.804358,77.823425 
	C8.710749,77.626503 7.696901,76.188637 6.965832,75.099030 
	C6.575977,74.517975 6.758531,73.467506 6.863864,72.652321 
	C8.558519,59.537121 4.375541,46.939312 3.499078,34.053078 
	C3.273913,30.742590 3.180598,27.423336 2.984383,24.110619 
	C2.783075,20.711922 4.689756,19.858648 7.372770,20.945908 
	C10.319368,22.139980 13.232383,23.085592 14.105938,27.301624 
	C15.316233,33.142857 24.657692,39.852043 30.560589,39.949081 
	C31.028685,40.023682 31.131647,40.121487 31.131647,40.121487 
	C31.846020,45.075462 33.178608,45.809998 38.985737,43.914043 
	C41.194664,43.838882 42.621090,43.869083 44.047512,43.899284 
M42.092392,51.957355 
	C42.435005,51.454346 42.777615,50.951336 43.120228,50.448326 
	C41.597347,50.448326 40.074467,50.448326 38.551586,50.448326 
	C38.564190,50.829502 38.576790,51.210682 38.589394,51.591858 
	C39.514492,51.724903 40.439587,51.857948 42.092392,51.957355 
M36.540569,65.711586 
	C35.962009,65.599487 35.383450,65.487396 34.804890,65.375298 
	C34.799736,65.786194 34.794586,66.197090 34.789436,66.607986 
	C35.370644,66.509941 35.951855,66.411888 36.540569,65.711586 
z"/>
<path fill="#BC86E8" opacity="1.000000" stroke="none" 
	d="
M259.210754,30.952168 
	C264.431244,28.202995 269.008362,28.629360 273.701477,31.574366 
	C274.919678,32.338814 277.434326,32.102051 278.822784,31.347982 
	C285.194733,27.887442 291.801361,28.702633 295.905731,33.843159 
	C299.998016,38.968529 299.454559,45.812378 294.557800,51.015800 
	C288.866333,57.063679 283.185303,63.121368 276.876221,69.838661 
	C269.024902,62.093346 261.778656,55.715878 255.497543,48.498508 
	C250.692657,42.977428 252.350021,36.949009 259.210754,30.952168 
z"/>
<path fill="#6F3EF5" opacity="1.000000" stroke="none" 
	d="
M424.441589,65.567154 
	C418.453064,58.344627 417.356171,49.987213 421.263947,43.090736 
	C425.088623,36.340866 431.981873,33.023800 439.773712,34.013138 
	C444.304382,34.588390 447.037201,36.320789 445.221527,41.990288 
	C439.040649,39.802189 432.595093,38.174530 428.177917,45.108803 
	C425.363708,49.526703 425.350311,54.408627 427.914551,58.871964 
	C432.602386,67.031731 440.637634,63.018890 447.969086,64.223564 
	C447.969086,48.758900 447.969086,33.723392 447.969086,18.362514 
	C450.489624,18.362514 452.402527,18.362514 454.729919,18.362514 
	C454.729919,35.459198 454.729919,52.675430 454.729919,70.666039 
	C444.620209,69.515228 433.861877,73.571518 424.441589,65.567154 
z"/>
<path fill="#6D3BF5" opacity="1.000000" stroke="none" 
	d="
M151.769669,27.042814 
	C151.769577,23.917168 151.769577,21.285414 151.769577,18.352982 
	C153.951981,18.352982 155.695496,18.352982 158.139618,18.352982 
	C158.139618,23.531654 158.139618,28.736767 158.139618,34.090973 
	C162.778656,34.398579 166.752258,34.529224 170.694199,34.953876 
	C176.957962,35.628658 180.637344,38.723557 181.043152,45.016144 
	C181.574020,53.248116 181.173248,61.540161 181.173248,70.193542 
	C179.424118,70.193542 177.527527,70.193542 174.966858,70.193542 
	C174.966858,64.434258 174.976349,58.679127 174.964783,52.924042 
	C174.943665,42.415928 173.338043,40.826405 162.831985,40.916088 
	C161.516479,40.927315 160.201752,41.025723 158.342438,41.107742 
	C158.342438,50.806580 158.342438,60.374641 158.342438,70.253677 
	C156.044266,70.253677 154.295975,70.253677 151.769760,70.253677 
	C151.769760,55.983479 151.769760,41.760090 151.769669,27.042814 
z"/>
<path fill="#7040F5" opacity="1.000000" stroke="none" 
	d="
M216.817032,35.978775 
	C224.201752,43.182003 221.592346,53.448132 212.012268,55.909851 
	C208.849411,56.722576 205.516602,56.873901 201.763306,57.397099 
	C201.763306,55.062607 201.763306,53.364193 201.763306,51.248825 
	C203.896896,51.148121 206.021210,51.180141 208.109283,50.920635 
	C211.971329,50.440670 214.242477,48.334801 213.863220,44.243019 
	C213.485214,40.164738 210.358597,39.888363 207.231796,39.925922 
	C202.516449,39.982555 199.244217,42.507389 197.719345,46.726727 
	C195.898117,51.766037 195.726181,56.976757 199.678101,61.260857 
	C202.997803,64.859596 207.414627,66.246811 211.944382,64.342865 
	C215.594452,62.808670 217.890030,63.421696 219.777512,66.659332 
	C214.894531,72.288040 203.599854,72.948692 196.674927,67.974060 
	C189.143951,62.564068 187.084549,51.127625 192.055893,42.323296 
	C196.742599,34.023060 206.353119,31.449795 216.817032,35.978775 
z"/>
<path fill="#6F3EF5" opacity="1.000000" stroke="none" 
	d="
M373.359497,45.658916 
	C371.514801,54.506229 365.640594,57.826923 354.216248,56.602039 
	C354.216248,54.934196 354.216248,53.229286 354.216248,51.239185 
	C356.543671,51.124268 358.689636,51.177971 360.785461,50.879417 
	C364.419556,50.361732 366.452850,48.312447 366.212738,44.438656 
	C365.954987,40.280582 362.984680,39.910698 359.814117,39.911640 
	C355.105530,39.913040 351.840454,42.358593 350.182709,46.538376 
	C348.179688,51.588936 348.162262,56.777538 351.922211,61.105701 
	C355.123260,64.790512 359.570099,66.187958 364.131042,64.427490 
	C367.865906,62.985882 370.378967,63.265362 372.259369,66.870865 
	C362.714355,75.789574 346.062134,71.138557 342.632538,58.595898 
	C338.725006,44.305119 348.004456,32.739845 362.416473,33.938602 
	C369.944275,34.564747 372.788086,37.496025 373.359497,45.658916 
z"/>
<path fill="#6F3EF5" opacity="1.000000" stroke="none" 
	d="
M499.738007,50.408913 
	C499.756561,61.836536 493.805267,69.665611 484.404541,71.054245 
	C475.257538,72.405403 466.657776,67.228317 464.000031,58.770687 
	C460.650238,48.110752 466.148987,37.123219 476.171753,34.449409 
	C487.269928,31.488716 496.868866,37.830170 499.738007,50.408913 
M470.835175,46.791382 
	C468.672974,55.141132 470.493591,61.092197 476.035980,63.791183 
	C481.680786,66.540047 488.346771,64.639908 491.247803,59.455105 
	C494.596710,53.469902 493.075562,45.386757 487.956696,41.966465 
	C482.337982,38.212185 475.684113,39.826290 470.835175,46.791382 
z"/>
<path fill="#7243F5" opacity="1.000000" stroke="none" 
	d="
M113.499023,18.125496 
	C124.081863,18.042730 134.219345,18.042730 144.774368,18.042730 
	C144.774368,20.174505 144.774368,22.052601 144.774368,24.586361 
	C140.982803,24.586361 137.095947,24.586361 132.625092,24.586361 
	C132.625092,40.099651 132.625092,54.982357 132.625092,70.237381 
	C129.977081,70.237381 127.926941,70.237381 125.347069,70.237381 
	C125.347069,55.281292 125.347069,40.384846 125.347069,24.845764 
	C120.801636,24.845764 116.744667,24.845764 111.787399,24.845764 
	C112.307022,22.121962 112.680344,20.165112 113.499023,18.125496 
z"/>
<path fill="#6E3DF5" opacity="1.000000" stroke="none" 
	d="
M394.587128,34.431885 
	C397.029938,34.620720 399.036011,34.693802 401.004303,35.005505 
	C406.628754,35.896225 410.461365,39.191608 410.758026,44.721188 
	C411.209595,53.137703 410.876221,61.596325 410.876221,70.311844 
	C408.863922,70.311844 407.099091,70.311844 404.465973,70.311844 
	C404.465973,65.533455 404.484192,60.783199 404.458862,56.033169 
	C404.444672,53.371319 404.460876,50.702953 404.282257,48.049717 
	C403.958466,43.240318 401.305786,40.865562 396.469604,40.918991 
	C393.838013,40.948067 391.205811,40.924175 388.040405,40.924175 
	C388.040405,50.859711 388.040405,60.421425 388.040405,70.281815 
	C385.601624,70.281815 383.699585,70.281815 381.465240,70.281815 
	C381.465240,58.473038 381.465240,46.902470 381.465240,34.425102 
	C385.641418,34.425102 389.887268,34.425102 394.587128,34.431885 
z"/>
<path fill="#BF8CE9" opacity="1.000000" stroke="none" 
	d="
M73.650467,20.844044 
	C73.599724,29.490881 74.731873,38.163719 72.628998,45.964481 
	C70.473534,53.960350 71.315514,61.675381 70.997505,69.496887 
	C70.624870,78.661995 69.789581,79.499100 59.706295,77.193108 
	C60.299969,76.167007 60.726242,74.595398 61.326714,74.525764 
	C65.741249,74.013786 65.193253,70.890892 65.164848,67.906700 
	C65.115753,62.748184 65.504280,57.557095 65.046272,52.438995 
	C64.602669,47.481773 63.324043,42.599274 62.249046,36.804729 
	C60.495216,38.760059 59.140751,40.632431 57.412399,42.048454 
	C56.510750,42.787167 54.950760,42.722336 53.688126,43.020447 
	C53.705029,41.659748 53.185509,39.911324 53.837318,39.009529 
	C55.970657,36.058037 58.561470,33.440952 60.917713,30.645830 
	C63.567806,27.502127 65.982086,24.133186 68.871941,21.234009 
	C69.750832,20.352278 71.864822,20.701662 73.650467,20.844044 
z"/>
<path fill="#6E3CF5" opacity="1.000000" stroke="none" 
	d="
M229.120346,33.005165 
	C229.120377,27.884523 229.120377,23.262846 229.120377,18.342550 
	C231.492752,18.342550 233.418259,18.342550 236.009384,18.342550 
	C236.087006,19.925888 236.241348,21.666597 236.246246,23.407730 
	C236.273331,33.050488 236.155563,42.694950 236.298355,52.335705 
	C236.435837,61.618111 238.791870,63.844177 247.896942,63.870117 
	C251.037415,63.879063 254.177933,63.871544 257.682617,63.871544 
	C257.682617,66.034599 257.682617,67.922752 257.682617,70.923027 
	C251.173462,70.457870 244.575882,70.439140 238.151871,69.373711 
	C233.605637,68.619705 230.403305,65.193726 230.101517,60.355873 
	C229.544098,51.419659 229.423111,42.456223 229.120346,33.005165 
z"/>
<path fill="#6F3FF5" opacity="1.000000" stroke="none" 
	d="
M313.366943,61.544029 
	C310.429962,52.624535 307.680481,44.025402 304.919800,35.391273 
	C310.451630,33.467957 312.602448,34.404381 313.613281,39.398071 
	C315.102234,46.753777 317.655640,53.894020 319.755676,61.126038 
	C320.616974,61.154190 321.478302,61.182343 322.339600,61.210495 
	C324.467560,54.090065 327.085388,47.068401 328.548126,39.813850 
	C329.494690,35.119225 331.008392,33.238422 336.348145,35.085335 
	C334.090698,48.169090 331.927704,61.236919 320.808899,71.649376 
	C318.221985,68.160057 315.888214,65.012222 313.366943,61.544029 
z"/>
<path fill="#C08EEA" opacity="1.000000" stroke="none" 
	d="
M99.705200,21.771950 
	C99.842415,36.498577 99.935242,50.805614 99.841469,65.111435 
	C99.827934,67.176872 98.917725,69.236435 98.422470,71.298721 
	C97.801018,71.295677 97.179565,71.292641 96.558113,71.289597 
	C96.019157,69.758690 95.024117,68.231369 95.012039,66.696312 
	C94.895508,51.890316 94.889130,37.082455 95.038391,22.277018 
	C95.052063,20.920389 96.363380,19.576841 97.072121,18.227219 
	C97.915054,19.268803 98.757980,20.310387 99.705200,21.771950 
z"/>
<path fill="#BF8CE9" opacity="1.000000" stroke="none" 
	d="
M70.848450,18.015347 
	C67.197144,19.626015 64.287308,18.794279 63.424343,15.397099 
	C62.931744,13.457929 63.764599,9.810476 65.121490,9.113117 
	C66.899902,8.199123 70.463493,8.617140 72.045738,9.927516 
	C74.962341,12.342976 74.113365,15.468289 70.848450,18.015347 
z"/>
<path fill="#BF8CE9" opacity="1.000000" stroke="none" 
	d="
M4.079962,11.395687 
	C5.749730,7.810304 8.661945,7.268458 11.320366,8.571361 
	C12.913717,9.352268 14.745715,11.961938 14.543036,13.494812 
	C14.299747,15.334812 12.331489,17.613182 10.530858,18.439720 
	C6.969054,20.074682 4.201663,17.041357 4.079962,11.395687 
z"/>
<path fill="#FAF6FD" opacity="1.000000" stroke="none" 
	d="
M44.273270,43.647804 
	C42.621090,43.869083 41.194664,43.838882 39.340179,43.774040 
	C37.920353,41.817612 36.928593,39.895821 35.981438,38.060467 
	C37.109913,38.260551 39.080688,38.755417 41.079006,38.924282 
	C43.167755,39.100788 45.283009,38.963707 47.386673,38.963707 
	C47.599590,39.409775 47.812504,39.855846 48.025417,40.301914 
	C46.849957,41.333385 45.674492,42.364857 44.273270,43.647804 
z"/>
<path fill="#BD87E9" opacity="1.000000" stroke="none" 
	d="
M30.262985,73.745300 
	C30.090092,72.283905 30.190699,70.914795 30.291306,69.545692 
	C30.731106,69.526421 31.170908,69.507149 31.610708,69.487877 
	C31.610708,70.810043 31.610708,72.132217 31.357838,73.696274 
	C30.915476,73.904640 30.725981,73.871117 30.262985,73.745300 
z"/>
<path fill="#BC85E8" opacity="1.000000" stroke="none" 
	d="
M30.979664,39.972317 
	C31.089235,39.737049 31.247829,39.553143 31.406422,39.369236 
	C31.432875,39.572674 31.459330,39.776108 31.308716,40.050514 
	C31.131647,40.121487 31.028685,40.023682 30.979664,39.972317 
z"/>
<path fill="#BD87E9" opacity="1.000000" stroke="none" 
	d="
M41.728539,51.974174 
	C40.439587,51.857948 39.514492,51.724903 38.589394,51.591858 
	C38.576790,51.210682 38.564190,50.829502 38.551586,50.448326 
	C40.074467,50.448326 41.597347,50.448326 43.120224,50.448326 
	C42.777615,50.951336 42.435005,51.454346 41.728539,51.974174 
z"/>
<path fill="#BD87E9" opacity="1.000000" stroke="none" 
	d="
M36.536816,66.012711 
	C35.951855,66.411888 35.370644,66.509941 34.789436,66.607986 
	C34.794586,66.197090 34.799736,65.786194 34.804890,65.375298 
	C35.383450,65.487396 35.962009,65.599487 36.536816,66.012711 
z"/>
<path fill="#FBFAFF" opacity="1.000000" stroke="none" 
	d="
M470.980347,46.420372 
	C475.684113,39.826290 482.337982,38.212185 487.956696,41.966465 
	C493.075562,45.386757 494.596710,53.469902 491.247803,59.455105 
	C488.346771,64.639908 481.680786,66.540047 476.035980,63.791183 
	C470.493591,61.092197 468.672974,55.141132 470.980347,46.420372 
z"/>
</svg>