<svg xmlns="http://www.w3.org/2000/svg" version="1.1" xmlns:xlink="http://www.w3.org/1999/xlink" xmlns:svgjs="http://svgjs.dev/svgjs" width="2000" height="308" viewBox="0 0 2000 308"><g transform="matrix(1,0,0,1,-1.2121212121212466,-0.17106296927082099)"><svg viewBox="0 0 396 61" data-background-color="#ffffff" preserveAspectRatio="xMidYMid meet" height="308" width="2000" xmlns="http://www.w3.org/2000/svg" xmlns:xlink="http://www.w3.org/1999/xlink"><g id="tight-bounds" transform="matrix(1,0,0,1,0.2400000000000091,0.05986255744920754)"><svg viewBox="0 0 395.52 60.88027488510158" height="60.88027488510158" width="395.52"><g><svg viewBox="0 0 522.3135483049334 80.39692657012826" height="60.88027488510158" width="395.52"><g><rect width="5.246221279104477" height="58.4652034753827" x="107.81376346796385" y="10.965861547372779" fill="#aaadb0" opacity="1" stroke-width="0" stroke="transparent" fill-opacity="1" class="rect-yte-0" data-fill-palette-color="secondary" rx="1%" id="yte-0" data-palette-color="#aaadb0"></rect></g><g transform="matrix(1,0,0,1,126.79354830493345,11.11129737691353)"><svg viewBox="0 0 395.52 58.1743318163012" height="58.1743318163012" width="395.52"><g id="textblocktransform"><svg viewBox="0 0 395.52 58.1743318163012" height="58.1743318163012" width="395.52" id="textblock"><g><svg viewBox="0 0 395.52 58.1743318163012" height="58.1743318163012" width="395.52"><g transform="matrix(1,0,0,1,0,0)"><svg width="395.52" viewBox="0.5 -35 241.68 35.55" height="58.1743318163012" data-palette-color="#1f4e7c"><path d="M4.95-19.8L0.5-19.8 9.45-28.75 9.45-24 16.2-24 16.2-19.8 9.45-19.8 9.45-9.5Q9.45-7.75 10.03-6.6 10.6-5.45 11.7-4.98 12.8-4.5 13.78-4.35 14.75-4.2 16.2-4.2L16.2-4.2 16.2 0Q10.45 0 7.7-2.2 4.95-4.4 4.95-9.5L4.95-9.5 4.95-19.8ZM20.95-35L25.35-35 25.35-24 29.6-24Q35.15-24 37.55-22.35L37.55-22.35Q39.7-20.9 40.27-18.88 40.85-16.85 40.85-13.55L40.85-13.55 40.85 0 36.45 0 36.45-13.5Q36.45-14.4 36.4-15.03 36.35-15.65 36.05-16.63 35.75-17.6 35.2-18.23 34.65-18.85 33.6-19.33 32.55-19.8 31.05-19.8L31.05-19.8 25.35-19.8 25.35 0 20.95 0 20.95-35ZM58.59-24.5L58.59-24.5Q67.09-24.15 67.09-17.45L67.09-17.45Q67.09-9.1 56.14-9.1L56.14-9.1 54.09-9.1 54.09-12.95 56.49-12.95Q59.84-12.95 61.14-13.98 62.45-15 62.45-17.4L62.45-17.4Q62.45-18.95 61.3-19.73 60.14-20.5 58.34-20.5L58.34-20.5Q54.8-20.5 52.77-18 50.74-15.5 50.74-12L50.74-12Q50.74-8.3 52.92-6 55.09-3.7 58.59-3.7L58.59-3.7Q61.75-3.7 63.75-5.25L63.75-5.25 66.75-2.3Q63.3 0.5 58.59 0.5L58.59 0.5Q52.89 0.5 49.49-2.85 46.09-6.2 46.09-11.5L46.09-11.5Q46.09-17.4 49.45-21.05 52.8-24.7 58.59-24.5ZM72.09-9.5L72.09-9.5 72.09-35 76.59-35 76.59-9.5Q76.59-7.7 77.02-6.58 77.44-5.45 78.34-4.98 79.24-4.5 80.09-4.35 80.94-4.2 82.34-4.2L82.34-4.2 82.34 0Q76.74 0 74.42-2.15 72.09-4.3 72.09-9.5ZM88.34-20.85L88.34-20.85Q91.84-24.5 97.09-24.5L97.09-24.5Q99.64-24.5 101.87-23.53 104.09-22.55 105.77-20.85 107.44-19.15 108.39-16.88 109.34-14.6 109.34-12L109.34-12Q109.34-9.4 108.42-7.13 107.49-4.85 105.84-3.15 104.19-1.45 101.94-0.48 99.69 0.5 97.09 0.5L97.09 0.5Q94.44 0.5 92.22-0.48 89.99-1.45 88.34-3.15 86.69-4.85 85.77-7.13 84.84-9.4 84.84-12L84.84-12Q84.84-17.3 88.34-20.85ZM97.09-20.3L97.09-20.3Q93.59-20.3 91.47-18 89.34-15.7 89.34-12 89.34-8.3 91.47-6 93.59-3.7 97.09-3.7L97.09-3.7Q100.64-3.7 102.74-6.03 104.84-8.35 104.84-12 104.84-15.65 102.74-17.98 100.64-20.3 97.09-20.3ZM123.19 0.55L123.19 0.55Q118.89-3.5 116.86-8.4 114.84-13.3 112.84-24L112.84-24 117.44-24Q119.39-11.95 123.19-5.75L123.19-5.75Q126.99-11.95 128.94-24L128.94-24 133.54-24Q131.54-13.3 129.51-8.4 127.49-3.5 123.19 0.55ZM149.54-24.5L149.54-24.5Q158.04-24.15 158.04-17.45L158.04-17.45Q158.04-9.1 147.09-9.1L147.09-9.1 145.04-9.1 145.04-12.95 147.44-12.95Q150.79-12.95 152.09-13.98 153.39-15 153.39-17.4L153.39-17.4Q153.39-18.95 152.24-19.73 151.09-20.5 149.29-20.5L149.29-20.5Q145.74-20.5 143.71-18 141.69-15.5 141.69-12L141.69-12Q141.69-8.3 143.86-6 146.04-3.7 149.54-3.7L149.54-3.7Q152.69-3.7 154.69-5.25L154.69-5.25 157.69-2.3Q154.24 0.5 149.54 0.5L149.54 0.5Q143.84 0.5 140.44-2.85 137.04-6.2 137.04-11.5L137.04-11.5Q137.04-17.4 140.39-21.05 143.74-24.7 149.54-24.5ZM163.28 0L163.28-24 171.93-24Q177.48-24 179.88-22.35L179.88-22.35Q182.03-20.9 182.61-18.88 183.18-16.85 183.18-13.55L183.18-13.55 183.18 0 178.78 0 178.78-13.5Q178.78-14.4 178.73-15.03 178.68-15.65 178.38-16.63 178.08-17.6 177.53-18.23 176.98-18.85 175.93-19.33 174.88-19.8 173.38-19.8L173.38-19.8 167.68-19.8 167.68 0 163.28 0ZM207.93-4.2L207.93-35 212.43-35 212.43 0 200.68 0Q195.23 0 191.83-3.48 188.43-6.95 188.43-12.25L188.43-12.25Q188.43-17.45 191.96-20.98 195.48-24.5 200.33-24.5L200.33-24.5Q203.43-24.5 206.13-23L206.13-23 206.13-18.5Q203.63-20.3 200.33-20.3L200.33-20.3Q197.33-20.3 195.26-18.07 193.18-15.85 193.18-12.25L193.18-12.25Q193.18-8.6 195.16-6.4 197.13-4.2 200.68-4.2L200.68-4.2 207.93-4.2ZM221.18-20.85L221.18-20.85Q224.68-24.5 229.93-24.5L229.93-24.5Q232.48-24.5 234.7-23.53 236.93-22.55 238.6-20.85 240.28-19.15 241.23-16.88 242.18-14.6 242.18-12L242.18-12Q242.18-9.4 241.25-7.13 240.33-4.85 238.68-3.15 237.03-1.45 234.78-0.48 232.53 0.5 229.93 0.5L229.93 0.5Q227.28 0.5 225.05-0.48 222.83-1.45 221.18-3.15 219.53-4.85 218.6-7.13 217.68-9.4 217.68-12L217.68-12Q217.68-17.3 221.18-20.85ZM229.93-20.3L229.93-20.3Q226.43-20.3 224.3-18 222.18-15.7 222.18-12 222.18-8.3 224.3-6 226.43-3.7 229.93-3.7L229.93-3.7Q233.48-3.7 235.58-6.03 237.68-8.35 237.68-12 237.68-15.65 235.58-17.98 233.48-20.3 229.93-20.3Z" opacity="1" transform="matrix(1,0,0,1,0,0)" fill="#1f4e7c" class="wordmark-text-0" data-fill-palette-color="primary" id="text-0"></path></svg></g></svg></g></svg></g></svg></g><g><svg viewBox="0 0 94.08019991009873 80.39692657012826" height="80.39692657012826" width="94.08019991009873"><g><svg xmlns="http://www.w3.org/2000/svg" xmlns:xlink="http://www.w3.org/1999/xlink" version="1.1" x="8" y="0" viewBox="-10.922000151734627 8.125 83.46500030346924 85.94149999999999" enable-background="new -20.238 0 100 100" xml:space="preserve" height="80.39692657012826" width="78.08019991009873" class="icon-icon-0" data-fill-palette-color="accent" id="icon-0"><g fill="#ffb300" data-fill-palette-color="accent"><path d="M26.571 76.507A3.824 3.824 0 0 0 22.746 80.332V90.243A3.823 3.823 0 0 0 30.393 90.243V80.332A3.823 3.823 0 0 0 26.571 76.507" fill="#ffb300" data-fill-palette-color="accent"></path><path d="M34.316 49.852H31.377C31.603 49.351 31.757 48.811 31.82 48.245H40.491C41.074 48.245 41.55 47.57 41.55 46.733 41.55 45.899 41.074 45.222 40.491 45.222H31.247A5.276 5.276 0 0 0 21.894 45.222H12.65C12.067 45.222 11.593 45.897 11.593 46.733 11.593 47.567 12.067 48.243 12.65 48.243H21.322C21.385 48.811 21.539 49.351 21.766 49.852H18.827A7.543 7.543 0 0 0 11.282 57.395L13.798 79.624C13.798 83.787 17.173 85.155 21.34 85.155H21.792V80.378A4.778 4.778 0 0 1 31.347 80.378V85.155H31.8C35.965 85.155 39.342 83.787 39.342 79.624L41.858 57.395A7.54 7.54 0 0 0 34.316 49.852M26.571 51.878A4.2 4.2 0 0 1 22.977 49.852 4.2 4.2 0 0 1 22.405 48.245 5 5 0 0 1 22.363 47.674C22.363 46.756 22.658 45.911 23.155 45.222A4.2 4.2 0 0 1 26.572 43.464C27.982 43.464 29.223 44.158 29.988 45.222A4.16 4.16 0 0 1 30.737 48.243 4.21 4.21 0 0 1 26.571 51.878M36.749 59.306H30.996A0.604 0.604 0 0 1 30.996 58.099H36.749A0.604 0.604 0 0 1 36.749 59.306" fill="#ffb300" data-fill-palette-color="accent"></path></g><g fill="#ffb300" data-fill-palette-color="accent"><path d="M-10.922 25.134L-9.272 53.14A3.3 3.3 0 0 0-6.553 56.386 3 3 0 0 0-6.587 56.819V86.896A3.077 3.077 0 0 0-3.194 89.956H3.456C5.156 89.956 6.534 90.231 6.534 88.53A3.08 3.08 0 0 0 3.456 85.451L-0.432 84.529V56.819C-0.432 56.653-0.449 56.486-0.474 56.327A3.3 3.3 0 0 0 1.975 53.14L1.79 40.11 9.514 49.012A2.867 2.867 0 1 0 13.844 45.252L1.662 31.212 1.607 27.245-7.622 21.833A3.3 3.3 0 0 0-10.922 25.134" fill="#ffb300" data-fill-palette-color="accent"></path><circle cx="-3.508" cy="14.49" r="6.4" fill="#ffb300" data-fill-palette-color="accent"></circle></g><g fill="#ffb300" data-fill-palette-color="accent"><path d="M69.243 21.833L60.016 27.245 59.96 31.212 47.78 45.252A2.866 2.866 0 1 0 52.109 49.012L59.832 40.11 59.646 53.14A3.3 3.3 0 0 0 62.095 56.327 3 3 0 0 0 62.054 56.819V84.53L58.165 85.452A3.08 3.08 0 0 0 55.087 88.531C55.087 90.232 56.466 89.957 58.165 89.957H64.814A3.076 3.076 0 0 0 68.206 86.897V56.819C68.206 56.673 68.194 56.529 68.174 56.386A3.3 3.3 0 0 0 70.893 53.14L72.543 25.134A3.3 3.3 0 0 0 69.243 21.833" fill="#ffb300" data-fill-palette-color="accent"></path><circle cx="65.131" cy="14.49" r="6.4" fill="#ffb300" data-fill-palette-color="accent"></circle></g></svg></g></svg></g></svg></g><defs></defs></svg><rect width="395.52" height="60.88027488510158" fill="none" stroke="none" visibility="hidden"></rect></g></svg></g></svg>